<svg xmlns="http://www.w3.org/2000/svg" xmlns:xlink="http://www.w3.org/1999/xlink" viewBox="0 0 891.87 541.91"><defs><style>.cls-1{fill:none;}.cls-2{isolation:isolate;}.cls-3{fill:url(#linear-gradient);}.cls-4{fill:#a3c0d9;}.cls-5{fill:#fff;}.cls-6{fill:#fcce90;}.cls-7{fill:#ffa214;}.cls-8{mix-blend-mode:soft-light;}.cls-9{clip-path:url(#clip-path);}.cls-10{fill:#bdd0fb;}.cls-11{fill:#91b3fa;}.cls-12{fill:#2062af;}.cls-13,.cls-14{fill:#7d97f4;}.cls-13{stroke:#7d97f4;stroke-miterlimit:10;stroke-width:1.24px;}.cls-15{fill:#ff9776;}.cls-16{fill:#e86f61;}.cls-17{fill:#955e5b;}.cls-18{fill:#313440;}.cls-19{fill:#381e13;}.cls-20{fill:#f2764d;}.cls-21{fill:#f9e3d0;}.cls-22{fill:#cc4e3d;}.cls-23{fill:#4c4e61;}.cls-24{fill:#de6157;}.cls-25{fill:#543241;}.cls-26{fill:#181b2d;}.cls-27{fill:#8f455f;}.cls-28{fill:#de6d74;}.cls-29{fill:#f7e7e4;}.cls-30{fill:#7d96b5;}.cls-31{fill:#2d294c;}.cls-32{fill:#542d39;}.cls-33{fill:#ba565c;}.cls-34{fill:#5e7396;}</style><linearGradient id="linear-gradient" x1="-1655.57" y1="2876.83" x2="-850.83" y2="2876.83" gradientTransform="translate(-808.13 3141.91) rotate(180)" gradientUnits="userSpaceOnUse"><stop offset="0" stop-color="#dae3fe"/><stop offset="1" stop-color="#e9effd"/></linearGradient><clipPath id="clip-path"><polygon class="cls-1" points="246.5 247.37 445.35 367.4 632.85 254.47 632.85 79.62 262.11 79.62 246.5 247.37"/></clipPath></defs><g class="cls-2"><g id="Layer_1" data-name="Layer 1"><path class="cls-3" d="M51.69,245.64c9.33,16.52,24.17,30.41,35.6,45.86,33,44.63-1.33,96.86,13.74,145,13.14,41.92,67.77,53.16,107.7,54.86,67.3,2.87,134.51-1.42,199.39-19.67,45-12.67,90.1-29.25,137.55-30.25,48.51-1,94.14,18.44,141,27.65,51.46,10.12,113-.86,125.41-58.33,7.69-35.6-13-68.39-14.94-103.44-2.56-46.4,43.7-71.87,49.68-115.25,3.78-27.35-10.33-51.79-28.72-71.58-19.42-20.88-45.52-39.32-75.47-41-31.31-1.79-59.25,14.65-88.51,22.49C571.91,124,525.23,50.42,449.56,40.16c-34.12-4.63-76.06-2.43-107,13.46-28.81,14.77-42.79,47.58-75.11,57.22-34.21,10.2-65.51-10.19-98-16.7-33.64-6.74-65.46,5.23-86.52,31.46-20.41,25.43-42.5,58.94-40,92.52A65.16,65.16,0,0,0,51.69,245.64Z"/><g id="Group_16158" data-name="Group 16158"><g id="Group_16154" data-name="Group 16154"><path id="Path_26605" data-name="Path 26605" class="cls-4" d="M790,350.15l-.38-.7a.27.27,0,0,0-.06-.12c-2.85-5.18-8.16-6.89-14-6.86l-1.08,0c-6.94.28-14.5,2.8-19.64,4.81l-1.12.45h0c-8.25,3.34-16,7.75-23.81,12a138.22,138.22,0,0,1-14.61,7.43l-1.51.57a35.14,35.14,0,0,1-12.7,2.36c-2.08,0-4.13-.13-6.16-.26,8.83-3.63,15.77-8.83,20.32-17.41,4.25-8,6.36-16.88,10-25.14l.34-.76c.29-.67.61-1.32.93-2,5-10.2,13.36-16.35,23.3-21.36l.06,0c.58-.29,1.16-.58,1.73-.85,8.72-4.3,17.86-8.22,24.82-15.18,8.19-8.18,10.17-18.23,9-29.45-.67-6.48-1.87-12.91-1.57-19.45.32-7.1,2.09-14,3.84-20.89l.27-1.07.2-.8c.82-3.18,1.61-6.43,2.26-9.71.06-.28.12-.56.17-.84,1.45-7.63,2-15.4-.18-22.89-2.13-7.25-6.85-14.07-13.73-17.27l-.7-.3a19.64,19.64,0,0,0-3.36-1.08c-9.78-2.21-19.85,2.49-26.81,9.2-8.24,8-13.31,18.57-19.27,28.2a164.37,164.37,0,0,1-12,17.33l-1.45,1.74a92.36,92.36,0,0,1-8.26,8.64c-9.08,8.3-19.81,12.58-30.76,17.76a56.36,56.36,0,0,0-18,12.76c-2.19-3.76-4.68-7.35-7.2-10.9-.55-.77-1.83,0-1.28.75,2.53,3.57,5.18,7.35,7.47,11.32a42.42,42.42,0,0,0-4.88,7.13,45.27,45.27,0,0,0-4.86,14.39c-.16.93,1.28,1.33,1.43.39a44.54,44.54,0,0,1,9.07-20.56c4,7.19,6.58,15,5.17,23.24-1.9,11.06-10.66,19.36-16.17,28.68-6.34,10.76-7.56,23.74-9.81,35.8-2.42,13-5.43,26.06-6.31,39.28-.34,5.24-1.17,12.28.76,17.31,1.5,3.91,6.1,3.19,9.41,2.36,5.85-1.46,10.67-4.83,15-8.84-.69,8.43-2.72,16.63-7.39,24-3.27,5.21-7.1,10.08-8.38,16.07-.06.32-.13.67-.18,1a19.47,19.47,0,0,0-.24,2.41c-.23,6.16-10.64,26.7-6.94,31.56,4.22,5.54,26,1.77,30.75,0,8.89-3.3,14.43-9.76,23.29-13.88,8.55-4,12.6-6.32,21.94-7.45,8.17-1,17.07-3.79,23.34-9.72.22-.2.43-.4.62-.61l.17-.17c7-7.2,8.06-17.52,12-26.4a24,24,0,0,1,1.64-3.09c.14-.22.28-.45.44-.67,6.18-9.38,17.87-14.28,26.94-20.39C784.46,383.49,798.11,366.32,790,350.15Z"/></g><g id="Group_16155" data-name="Group 16155"><path id="Path_26606" data-name="Path 26606" class="cls-5" d="M753,216.75c-1.29,5.18-2.5,10.38-4,15.53a108.32,108.32,0,0,1,39-16.75l-.2.81a107.82,107.82,0,0,0-39.09,17c-.22.78-.45,1.56-.7,2.33a92.76,92.76,0,0,1-11.35,23.92c-9.86,14.84-23.2,26.88-36.64,38.41a51.16,51.16,0,0,1,9.54-1.22,28,28,0,0,1,9.83,1.91c7,2.51,14.59,2.57,21.92,3.4a53.57,53.57,0,0,0,10.13.22l-1.72.86-.07,0a48.87,48.87,0,0,1-6.95-.21c-3.58-.37-7.15-.83-10.74-1.13a50.17,50.17,0,0,1-10.33-1.62c-3.61-1.09-6.86-2.54-10.7-2.7a48.21,48.21,0,0,0-11.48,1.32.33.33,0,0,1-.33-.09c-6.63,5.68-13.3,11.33-19.69,17.26a25.13,25.13,0,0,1,14.87,1.18,44.76,44.76,0,0,1,6.67,3.79,34.55,34.55,0,0,0,7.83,3.68,46.91,46.91,0,0,0,16.62,1.86c-.12.25-.23.51-.34.76a47.28,47.28,0,0,1-16.17-1.81,33.24,33.24,0,0,1-6.95-3c-2.3-1.33-4.44-2.95-6.85-4.1a24.48,24.48,0,0,0-16.79-1.31,173.44,173.44,0,0,0-19.1,20.63,153,153,0,0,0-25,48.68c-.14.45-.86.26-.72-.2a153.84,153.84,0,0,1,28.35-52.93,177.24,177.24,0,0,1,16-16.75.3.3,0,0,1,.08-.08c13.22-12.3,27.79-23.39,40.52-36.09a.36.36,0,0,1-.14-.37c1.55-7,2.42-15.18.43-22.2-1-3.43-3.17-6.11-4.83-9.2a29.36,29.36,0,0,1-3-8.68,39.73,39.73,0,0,1,1.94-20c.5-.59,1-1.16,1.45-1.75-3.05,7.86-4.35,16.25-2,24.63,1.8,6.31,6.64,11,7.67,17.61a53.38,53.38,0,0,1-.91,19.27,126.34,126.34,0,0,0,20.46-26.19c9.63-16.91,11.32-36.48,18-54.51a145.55,145.55,0,0,1,18.27-34.45c.24.09.47.2.7.3a144.74,144.74,0,0,0-21.07,42.8c-.78,2.62-1.49,5.27-2.16,7.94,3.37-3.33,7.91-4.87,12.51-5.68,5.64-1,11.33-1.49,16.92-2.78,2.6-.61,5.16-1.32,7.7-2.11,0,.27-.1.55-.16.83q-2.68.84-5.42,1.53a164.12,164.12,0,0,1-16.79,2.92c-5.42.78-10.95,2.19-14.78,6.37A.35.35,0,0,1,753,216.75Z"/></g><g id="Group_16156" data-name="Group 16156"><path id="Path_26607" data-name="Path 26607" class="cls-5" d="M790,350.15c-1,.42-2,.89-3,1.36-3.25,1.63-6.47,3.33-9.68,5-6.43,3.38-12.81,6.86-19,10.63-11.1,6.74-21.73,14.46-30.58,24A124.2,124.2,0,0,0,716,406.64c4.08-1.53,8.47-.67,12.52.8,5.39,1.94,10.54,4.05,16.19,5.07l-.44.67a68.5,68.5,0,0,1-12.69-3.76c-5.16-2.05-11-4.32-16.36-1.63-3.29,4.79-7,9.27-12.16,12.13-6.21,3.42-13.44,4.92-20.31,6.35-2.64.55-5.3,1.06-7.94,1.58a43.87,43.87,0,0,1,16,9.36,22.7,22.7,0,0,0,3.43,3,12,12,0,0,0,4.4,1.46c3.5.57,7.09.82,10.62,1.08a86.73,86.73,0,0,0,10.57.19,100,100,0,0,1,10.67-.27h.12l-.16.17c-.2.21-.41.41-.62.61a57.92,57.92,0,0,0-6.32,0,126.68,126.68,0,0,1-20.05-.51,30.32,30.32,0,0,1-8.18-1.41c-2.3-.94-3.87-2.83-5.69-4.43a43.31,43.31,0,0,0-15.7-8.8.36.36,0,0,1-.25-.26c-4.43.86-8.86,1.74-13.24,2.86a71.82,71.82,0,0,0-22.72,9.61A41.56,41.56,0,0,0,626.94,451c-.28.39-.92,0-.64-.37a42.38,42.38,0,0,1,11.62-11.11c7.61-5,16.61-8,25.45-10.08,7.63-1.77,15.39-3,23-4.73,1.51-.35,3-.7,4.56-1.09,1.53-3,3.44-5.81,4.83-8.88a32.9,32.9,0,0,0,2.42-10.62c.57-6.28,1-12.23,3.51-18.12a65.56,65.56,0,0,1,9.84-15.66c.69-.87,1.4-1.71,2.12-2.55.51-.17,1-.37,1.51-.57-1.28,1.41-2.51,2.89-3.7,4.38a60.42,60.42,0,0,0-9.88,16.69c-2.22,6.14-2.11,12.5-3,18.87a28.1,28.1,0,0,1-2.32,8.25c-1.28,2.75-2.94,5.29-4.36,8,5.54-1.48,11-3.51,15.34-7.27a43.9,43.9,0,0,0,7.29-8.62.32.32,0,0,1,.17-.28h0c1.65-2.42,3.21-4.9,4.9-7.26a97,97,0,0,1,12.57-14.35,137.71,137.71,0,0,1,17.71-13.95,52.36,52.36,0,0,1-.73-11.32,24.92,24.92,0,0,1,3-9.73c.49-.94,1-1.88,1.42-2.82l1.12-.45c-.21.42-.42.85-.64,1.26-1.92,3.71-3.75,7.18-4.15,11.4a48.94,48.94,0,0,0,.63,11.21q1.89-1.26,3.81-2.47a.29.29,0,0,1-.08-.34c2.32-7.53,5.76-14.52,12.11-19.4a88.15,88.15,0,0,0,8-6.47l1.07,0a43.56,43.56,0,0,1-6,5.19,34.13,34.13,0,0,0-9.38,9.29,47.6,47.6,0,0,0-5,11.3q4.47-2.82,9.05-5.42c5.87-3.35,11.85-6.5,17.84-9.6,2.36-1.21,4.9-2.69,7.55-3.79C789.73,349.69,789.86,349.92,790,350.15Z"/></g><g id="Group_16157" data-name="Group 16157"><path id="Path_26608" data-name="Path 26608" class="cls-5" d="M692.68,369.7c-13.57,0-28.63.33-39.12,10.23-.35.33.18.85.52.52,10.34-9.75,25.23-10,38.6-10a.38.38,0,0,0,.37-.37A.37.37,0,0,0,692.68,369.7Z"/></g></g><g id="Group_16158-2" data-name="Group 16158"><g id="Group_16154-2" data-name="Group 16154"><path id="Path_26605-2" data-name="Path 26605" class="cls-4" d="M131.23,369.71l.32-.6a.47.47,0,0,1,0-.1c2.42-4.38,6.91-5.82,11.89-5.8l.91,0c5.88.23,12.27,2.36,16.62,4.06l.95.38,0,0c7,2.82,13.56,6.55,20.15,10.17a117.77,117.77,0,0,0,12.37,6.29l1.28.49a29.69,29.69,0,0,0,10.75,2c1.75,0,3.49-.11,5.21-.22-7.48-3.07-13.35-7.47-17.2-14.73-3.6-6.76-5.38-14.29-8.43-21.28-.1-.21-.19-.43-.29-.64-.25-.57-.51-1.12-.78-1.68-4.24-8.63-11.31-13.84-19.72-18.07l-.06,0c-.48-.24-1-.49-1.46-.72-7.37-3.63-15.11-7-21-12.84-6.93-6.92-8.61-15.43-7.62-24.93.56-5.48,1.58-10.92,1.33-16.46-.27-6-1.77-11.87-3.25-17.67-.08-.31-.15-.61-.23-.91l-.17-.68c-.69-2.69-1.36-5.44-1.91-8.22-.05-.23-.1-.47-.14-.7-1.23-6.46-1.71-13,.15-19.38,1.8-6.14,5.8-11.91,11.62-14.61l.59-.26a16.77,16.77,0,0,1,2.84-.91c8.28-1.87,16.81,2.11,22.69,7.79,7,6.73,11.27,15.71,16.31,23.86A138.5,138.5,0,0,0,195.23,258c.4.5.81,1,1.23,1.48a77.82,77.82,0,0,0,7,7.31c7.68,7,16.76,10.65,26,15a47.53,47.53,0,0,1,15.22,10.8c1.86-3.18,4-6.22,6.1-9.23.46-.65,1.55,0,1.08.64-2.14,3-4.38,6.22-6.32,9.58a35.55,35.55,0,0,1,4.13,6,38.64,38.64,0,0,1,4.11,12.18c.13.79-1.08,1.13-1.21.33a37.65,37.65,0,0,0-7.68-17.4c-3.34,6.09-5.56,12.68-4.37,19.67,1.61,9.36,9,16.38,13.68,24.28,5.37,9.1,6.4,20.08,8.31,30.29,2.05,11,4.59,22.05,5.34,33.24.29,4.43,1,10.4-.65,14.65-1.27,3.31-5.16,2.7-8,2-4.95-1.24-9-4.09-12.7-7.49.59,7.14,2.31,14.08,6.26,20.35,2.77,4.41,6,8.54,7.09,13.6.06.28.11.57.16.85a17.18,17.18,0,0,1,.2,2c.19,5.21,9,22.59,5.87,26.71-3.58,4.69-22,1.49-26,0-7.52-2.79-12.2-8.26-19.71-11.74-7.23-3.35-10.66-5.35-18.57-6.31-6.91-.84-14.44-3.21-19.75-8.22l-.52-.51-.14-.15c-5.94-6.09-6.82-14.83-10.14-22.34a21.15,21.15,0,0,0-1.39-2.62c-.12-.19-.24-.38-.37-.57-5.24-7.93-15.13-12.08-22.8-17.25C135.9,397.92,124.34,383.39,131.23,369.71Z"/></g><g id="Group_16155-2" data-name="Group 16155"><path id="Path_26606-2" data-name="Path 26606" class="cls-5" d="M162.51,256.81c1.09,4.39,2.12,8.79,3.35,13.14a91.77,91.77,0,0,0-33-14.17l.17.68a91.11,91.11,0,0,1,33.08,14.44c.19.66.39,1.31.59,2a78.49,78.49,0,0,0,9.61,20.24c8.34,12.56,19.63,22.75,31,32.5a43,43,0,0,0-8.07-1A23.66,23.66,0,0,0,191,326.2c-5.92,2.12-12.35,2.17-18.55,2.88a46.41,46.41,0,0,1-8.58.19c.49.23,1,.47,1.46.72l.06,0a41.23,41.23,0,0,0,5.88-.18c3-.32,6.05-.71,9.09-1a42.43,42.43,0,0,0,8.74-1.37c3.06-.92,5.81-2.15,9.06-2.28a40.2,40.2,0,0,1,9.71,1.12.32.32,0,0,0,.28-.08c5.61,4.8,11.26,9.59,16.67,14.61a21.26,21.26,0,0,0-12.59,1,38.41,38.41,0,0,0-5.65,3.21,29,29,0,0,1-6.62,3.11,39.61,39.61,0,0,1-14.07,1.58c.11.21.2.43.29.64a39.77,39.77,0,0,0,13.68-1.53,28,28,0,0,0,5.89-2.55c1.94-1.13,3.75-2.51,5.79-3.47a20.76,20.76,0,0,1,14.22-1.12,146.71,146.71,0,0,1,16.15,17.47,129.29,129.29,0,0,1,21.19,41.19.32.32,0,0,0,.61-.17,130.11,130.11,0,0,0-24-44.79,150,150,0,0,0-13.55-14.18l-.07-.07c-11.19-10.41-23.52-19.79-34.29-30.54a.29.29,0,0,0,.12-.31c-1.31-5.94-2.05-12.84-.36-18.79.82-2.9,2.68-5.17,4.08-7.78a24.91,24.91,0,0,0,2.52-7.35,33.69,33.69,0,0,0-1.65-16.94c-.42-.49-.82-1-1.22-1.48,2.58,6.66,3.68,13.76,1.66,20.85-1.52,5.34-5.62,9.32-6.5,14.9a45.2,45.2,0,0,0,.78,16.31,106.51,106.51,0,0,1-17.32-22.16c-8.15-14.32-9.58-30.87-15.2-46.14a122.92,122.92,0,0,0-15.46-29.15l-.59.26a122.35,122.35,0,0,1,17.82,36.21c.67,2.22,1.27,4.47,1.83,6.72-2.85-2.81-6.69-4.11-10.58-4.8-4.78-.85-9.59-1.26-14.32-2.36-2.2-.51-4.37-1.11-6.52-1.78,0,.23.09.47.14.7,1.51.47,3,.9,4.58,1.3a142.59,142.59,0,0,0,14.21,2.47c4.59.66,9.27,1.85,12.51,5.39A.28.28,0,0,0,162.51,256.81Z"/></g><g id="Group_16156-2" data-name="Group 16156"><path id="Path_26607-2" data-name="Path 26607" class="cls-5" d="M131.23,369.71c.86.35,1.69.75,2.5,1.15,2.75,1.38,5.47,2.81,8.19,4.24,5.44,2.86,10.84,5.81,16.09,9,9.39,5.7,18.39,12.23,25.88,20.31a106.15,106.15,0,0,1,9.92,13.11c-3.44-1.3-7.16-.57-10.59.67-4.56,1.65-8.92,3.43-13.7,4.29.13.19.25.38.37.57a58.35,58.35,0,0,0,10.74-3.18c4.37-1.73,9.3-3.66,13.84-1.38,2.79,4.05,5.91,7.84,10.29,10.26,5.26,2.9,11.38,4.16,17.19,5.38,2.24.46,4.49.9,6.73,1.33a37.16,37.16,0,0,0-13.57,7.93,20.63,20.63,0,0,1-2.91,2.53,10,10,0,0,1-3.72,1.23c-3,.48-6,.7-9,.92a74.07,74.07,0,0,1-8.94.16,82.51,82.51,0,0,0-9-.23h-.1a.92.92,0,0,0,.14.14c.16.18.34.35.52.52a50.26,50.26,0,0,1,5.35,0,106.75,106.75,0,0,0,17-.43,26,26,0,0,0,6.93-1.19c2-.8,3.27-2.39,4.81-3.75a36.54,36.54,0,0,1,13.29-7.44.31.31,0,0,0,.21-.23c3.75.73,7.5,1.48,11.21,2.42a61.07,61.07,0,0,1,19.23,8.14,35.32,35.32,0,0,1,9.14,8.86c.23.34.77,0,.54-.31a36,36,0,0,0-9.84-9.4c-6.44-4.24-14.06-6.8-21.54-8.53-6.46-1.5-13-2.53-19.48-4-1.28-.3-2.58-.59-3.87-.93-1.29-2.54-2.91-4.91-4.08-7.51a27.81,27.81,0,0,1-2.05-9c-.49-5.31-.87-10.35-3-15.33a55.75,55.75,0,0,0-8.33-13.26c-.58-.73-1.19-1.45-1.8-2.15-.42-.15-.85-.32-1.27-.49,1.08,1.2,2.12,2.45,3.13,3.71A51.19,51.19,0,0,1,206,402c1.88,5.19,1.78,10.57,2.54,16a24.29,24.29,0,0,0,2,7c1.08,2.32,2.49,4.47,3.69,6.73-4.69-1.25-9.32-3-13-6.15a37.73,37.73,0,0,1-6.17-7.29.25.25,0,0,0-.15-.24h0c-1.39-2.05-2.71-4.15-4.14-6.15A83,83,0,0,0,180.1,399.7a116,116,0,0,0-15-11.8,44,44,0,0,0,.61-9.59,21,21,0,0,0-2.55-8.23c-.42-.79-.82-1.59-1.21-2.39l-1-.38.54,1.07c1.63,3.13,3.17,6.08,3.51,9.65a41.24,41.24,0,0,1-.53,9.48c-1.06-.71-2.14-1.4-3.22-2.09a.26.26,0,0,0,.07-.29c-2-6.36-4.88-12.28-10.25-16.41a72.16,72.16,0,0,1-6.73-5.48c-.31,0-.61,0-.92,0a37.4,37.4,0,0,0,5.09,4.39,28.94,28.94,0,0,1,7.93,7.86,40.72,40.72,0,0,1,4.19,9.56q-3.78-2.37-7.66-4.58c-5-2.84-10-5.5-15.1-8.12-2-1-4.14-2.29-6.39-3.21C131.43,369.31,131.33,369.51,131.23,369.71Z"/></g><g id="Group_16157-2" data-name="Group 16157"><path id="Path_26608-2" data-name="Path 26608" class="cls-5" d="M213.57,386.25c11.49,0,24.23.28,33.11,8.66.29.28-.15.72-.45.44-8.75-8.25-21.35-8.46-32.66-8.47a.32.32,0,0,1,0-.63Z"/></g></g><path class="cls-6" d="M228.52,236.51V456.59c0,16.2,14.23,29.33,31.78,29.33H629.85c17.55,0,31.78-13.13,31.78-29.33V236.51Z"/><path class="cls-7" d="M553.58,171l-93.94-56.84a27.65,27.65,0,0,0-29.13,0L336.57,171,228.07,236.6l108.5,65.46,108.5,65.47L553.58,302l108.5-65.39Z"/><g class="cls-8"><path class="cls-5" d="M237,476.4a.77.77,0,0,1-.51-.19.76.76,0,0,1-.06-1.07L371.77,322.89a.76.76,0,0,1,1.07-.07.77.77,0,0,1,.06,1.08L237.58,476.15A.75.75,0,0,1,237,476.4Z"/><path class="cls-5" d="M653.14,476.4a.75.75,0,0,1-.57-.25L517.25,323.9a.77.77,0,0,1,.06-1.08.76.76,0,0,1,1.07.07L653.71,475.14a.76.76,0,0,1-.06,1.07A.77.77,0,0,1,653.14,476.4Z"/></g><g class="cls-9"><path class="cls-10" d="M579.8,130H276.64a10,10,0,0,0-9.78,10V386H623.28V174.19Z"/><path class="cls-11" d="M623.12,174.19l-39.79.34a3.51,3.51,0,0,1-2.62-1.14,3.71,3.71,0,0,1-.83-2.81V130.31Z"/><path class="cls-12" d="M506,235.28A54.37,54.37,0,0,1,502.6,255a32.58,32.58,0,0,1-9.71,14,22.45,22.45,0,0,1-14.57,5.08,18.08,18.08,0,0,1-9.78-2.65,15.2,15.2,0,0,1-6.13-7h-1.2a25.58,25.58,0,0,1-20.54,9.64q-13.23,0-20.84-8t-7.63-21.77q0-15.76,10-25.41t26.14-9.63a90.62,90.62,0,0,1,14.16,1.23,77.27,77.27,0,0,1,12.74,3L473.54,250q0,10.39,5.68,10.39,4.78,0,7.62-7t2.84-18.26a43.85,43.85,0,0,0-5-21.26,33.94,33.94,0,0,0-14.08-14.08,43.22,43.22,0,0,0-20.73-4.86q-15.09,0-26.22,6.2A41.45,41.45,0,0,0,406.56,219q-5.94,11.68-5.94,27,0,20.62,11,31.64t31.94,11A96.32,96.32,0,0,0,461,286.94a115.48,115.48,0,0,0,18.68-5.12v14.34a89.68,89.68,0,0,1-35.49,6.8q-28.4,0-44.26-14.94T384,246.48A69.49,69.49,0,0,1,392.15,213a58.75,58.75,0,0,1,23.08-23.6q15-8.56,34.48-8.56,16.44,0,29.36,6.73A47.62,47.62,0,0,1,499,206.66Q506,219.07,506,235.28Zm-76.5,9.33q0,15.76,12.85,15.77,6.72,0,10.23-4.75t4.26-15.42l1-16.51a40.71,40.71,0,0,0-8.59-.83q-9.33,0-14.53,5.83T429.54,244.61Z"/></g><path class="cls-13" d="M670.08,97.48a60,60,0,0,1,93.45-50.59L767,43.42a1.76,1.76,0,0,1,2.94.77l6,21.7a1.76,1.76,0,0,1-2.14,2.17l-21.78-5.68a1.76,1.76,0,0,1-.8-2.94l3.84-3.9a48,48,0,1,0,23.29,41.54,1.94,1.94,0,0,1,1.74-2l8.39-.1a1.76,1.76,0,0,1,1.19.66l.07.07a2.29,2.29,0,0,1,.52,1.48,60.05,60.05,0,0,1-120.1.24ZM774.62,66.35a.45.45,0,0,0,0-.11l-6-21.7a.46.46,0,0,0-.33-.32.43.43,0,0,0-.44.12l-4.18,4.23-.44-.31a58.72,58.72,0,1,0,25.63,49h0a1.14,1.14,0,0,0-.14-.56l-.08-.07a1.82,1.82,0,0,0-.29-.27l-8.35.1c-.18,0-.44.35-.45.67a49.47,49.47,0,1,1-23.21-42.24l.69.43-5,5.06a.46.46,0,0,0-.11.45.43.43,0,0,0,.32.32l21.78,5.68a.45.45,0,0,0,.44-.12A.41.41,0,0,0,774.62,66.35Z"/><path class="cls-14" d="M711.79,108.6H694.48V105l6.22-6.28q2.76-2.82,3.6-3.92a8.34,8.34,0,0,0,1.22-2,5.1,5.1,0,0,0,.37-1.93,2.82,2.82,0,0,0-.82-2.22,3.19,3.19,0,0,0-2.19-.72,6.15,6.15,0,0,0-2.79.66,14.2,14.2,0,0,0-2.83,1.87L694.42,87a17.94,17.94,0,0,1,3-2.21,11.85,11.85,0,0,1,2.62-1,13.54,13.54,0,0,1,3.18-.34,9.47,9.47,0,0,1,4.1.84,6.56,6.56,0,0,1,2.76,2.37,6.35,6.35,0,0,1,1,3.49,8.56,8.56,0,0,1-.6,3.21,12.28,12.28,0,0,1-1.86,3.07,44.5,44.5,0,0,1-4.45,4.49L701,104v.23h10.79Z"/><path class="cls-14" d="M732.14,103.47h-3v5.13H724v-5.13H713.48V99.83l10.85-16h4.83V99.41h3ZM724,99.41v-4.2c0-.7,0-1.71.09-3s.1-2.11.13-2.32h-.13a19,19,0,0,1-1.51,2.7l-4.54,6.86Z"/><path class="cls-14" d="M746.83,83.85l-9.22,24.75h-4.69l9.22-24.75Z"/><path class="cls-14" d="M750.85,108.6l9.29-20.31H747.93v-4.4h17.76v3.28l-9.36,21.43Z"/><path class="cls-14" d="M209.79,171.12a2.35,2.35,0,0,1-2.21-1.56l-3.26-9.22a47.68,47.68,0,0,1-12.81-5.19l-8.76,4.36a2.33,2.33,0,0,1-2.68-.43L171,150.17a2.33,2.33,0,0,1-.47-2.67l4.21-8.84A47.5,47.5,0,0,1,169.36,126l-9.28-3.12a2.34,2.34,0,0,1-1.59-2.19l-.1-12.71a2.32,2.32,0,0,1,1.55-2.22l9.23-3.27a47.14,47.14,0,0,1,5.18-12.8L170,80.87a2.34,2.34,0,0,1,.43-2.68l8.91-9.06a2.33,2.33,0,0,1,2.67-.47l8.84,4.22a47.41,47.41,0,0,1,12.72-5.4l3.11-9.28a2.35,2.35,0,0,1,2.2-1.59l12.71-.1h0a2.34,2.34,0,0,1,2.21,1.55l3.26,9.23a47.66,47.66,0,0,1,12.81,5.18l8.76-4.36a2.34,2.34,0,0,1,2.68.43l9.06,8.91a2.33,2.33,0,0,1,.47,2.67L256.63,89A47.38,47.38,0,0,1,262,101.68l9.28,3.11a2.33,2.33,0,0,1,1.59,2.2L273,119.7a2.34,2.34,0,0,1-1.56,2.22l-9.22,3.26A47.68,47.68,0,0,1,257,138l4.36,8.77a2.34,2.34,0,0,1-.43,2.68l-8.91,9.06a2.35,2.35,0,0,1-2.67.47l-8.84-4.22a47.67,47.67,0,0,1-12.71,5.4l-3.12,9.27a2.34,2.34,0,0,1-2.19,1.6l-12.71.1Zm-18.14-19.31.69.42a44.87,44.87,0,0,0,13.42,5.43l.79.18,3.66,10.34,11.85-.1,3.5-10.4.78-.19a44.56,44.56,0,0,0,13.33-5.65l.68-.43,9.91,4.72,8.31-8.45-4.89-9.83.43-.69a44.81,44.81,0,0,0,5.43-13.41l.18-.79,10.34-3.66-.1-11.86L259.56,104l-.19-.79a44.51,44.51,0,0,0-5.65-13.32l-.43-.69,4.72-9.9-8.45-8.32-9.83,4.89L239,75.4A44.3,44.3,0,0,0,225.63,70l-.8-.18-3.66-10.34-11.85.09-3.49,10.4-.79.19a44.53,44.53,0,0,0-13.32,5.66l-.69.43-9.91-4.73-8.31,8.45,4.89,9.83-.42.69a44.63,44.63,0,0,0-5.44,13.42l-.17.79-10.35,3.66.1,11.86,10.4,3.49.19.78a44.59,44.59,0,0,0,5.66,13.33l.43.68-4.73,9.91,8.45,8.31Zm13-83.1h0Zm10.82,77.44a32.13,32.13,0,0,1-.25-64.26,33,33,0,0,1,6.8.67,1.45,1.45,0,0,1,1.14,1.73,1.48,1.48,0,0,1-1.73,1.15,29.19,29.19,0,0,0-26.42,49.39,29.19,29.19,0,0,0,45.4-36A1.47,1.47,0,0,1,243,97.3a32.14,32.14,0,0,1-27.18,48.85Z"/><path class="cls-14" d="M215.67,126.57a12.75,12.75,0,0,1-3.2-25.09h0a12.75,12.75,0,1,1,3.2,25.09Zm-2.46-22.25a9.81,9.81,0,1,0,12,7,9.75,9.75,0,0,0-12-7Z"/><path class="cls-14" d="M132.6,173.79a1.54,1.54,0,0,1-1.23-.62l-2.66-3.62a23.09,23.09,0,0,1-6.31-.57l-3.27,3.09a1.53,1.53,0,0,1-1.75.24L112,169.47a1.51,1.51,0,0,1-.8-1.57l.67-4.45a23.36,23.36,0,0,1-4.06-4.86l-4.49-.13a1.51,1.51,0,0,1-1.4-1.06l-1.83-5.84a1.52,1.52,0,0,1,.55-1.67l3.62-2.67a23.13,23.13,0,0,1,.57-6.31l-3.09-3.27a1.52,1.52,0,0,1-.24-1.74l2.84-5.42a1.53,1.53,0,0,1,1.57-.8l4.45.68a22.76,22.76,0,0,1,4.86-4.06l.13-4.49a1.53,1.53,0,0,1,1.06-1.41l5.84-1.82a1.5,1.5,0,0,1,1.67.54l2.67,3.62a23.09,23.09,0,0,1,6.31.57l3.27-3.08a1.53,1.53,0,0,1,1.75-.25l5.41,2.84a1.51,1.51,0,0,1,.8,1.58l-.67,4.44a23.36,23.36,0,0,1,4.06,4.86l4.49.13a1.53,1.53,0,0,1,1.41,1.07l1.82,5.83a1.54,1.54,0,0,1-.55,1.68L151,145.07a23.09,23.09,0,0,1-.57,6.31l3.09,3.27a1.53,1.53,0,0,1,.24,1.75L151,161.81a1.5,1.5,0,0,1-1.57.8l-4.45-.67a23.36,23.36,0,0,1-4.86,4.06l-.13,4.49a1.54,1.54,0,0,1-1.06,1.41l-5.84,1.82A1.41,1.41,0,0,1,132.6,173.79Zm-.2-2.17h0Zm-2.63-4.34,3.09,4.19,4.9-1.53.16-5.21.52-.31a21,21,0,0,0,5.24-4.38l.4-.46,5.16.78,2.38-4.55L148,152l.15-.59a20.86,20.86,0,0,0,.62-6.81l-.05-.6,4.2-3.1-1.53-4.9-5.21-.15-.31-.53a21.18,21.18,0,0,0-4.38-5.24l-.46-.4.78-5.15-4.55-2.39-3.8,3.58-.58-.15a21.13,21.13,0,0,0-6.81-.62l-.61,0-3.09-4.2-4.9,1.53-.16,5.21-.52.31a21.18,21.18,0,0,0-5.24,4.38l-.4.46-5.16-.78-2.38,4.56,3.58,3.79-.15.59a20.82,20.82,0,0,0-.62,6.8l.05.61-4.2,3.09,1.53,4.91,5.21.15.31.52a21.23,21.23,0,0,0,4.38,5.25l.46.39-.78,5.16,4.55,2.38,3.8-3.58.58.16a21.13,21.13,0,0,0,6.81.61Zm-11.37,3.08ZM113,167.52Zm39-11.36h0Zm-.67-20.61h0Zm-45.73-3.69h0Zm36.73-7.09Zm-24.76-2.9Zm-1.1,0h0Zm6.46-1.16h0Zm4.71,41.44a15.85,15.85,0,0,1-4.73-31,15.7,15.7,0,0,1,3.3-.66,1.11,1.11,0,0,1,1.2,1,1.09,1.09,0,0,1-1,1.19,14.11,14.11,0,0,0-2.85.57,13.66,13.66,0,1,0,13.16,2.85,1.1,1.1,0,1,1,1.47-1.65,15.86,15.86,0,0,1-10.55,27.68Z"/><g id="Group_16550" data-name="Group 16550"><g id="Group_16507" data-name="Group 16507"><path id="Path_26913" data-name="Path 26913" class="cls-15" d="M626.55,247.82l-11.45,1.55,2.16-16.92-6.3-1.68h0a2.8,2.8,0,0,1-1.62-1.79,37.16,37.16,0,0,1,.21-5.78c.06-.7.13-1.41.2-2.11.28-2.68.61-5.2.77-6.23s.89-3.85,1.75-6.93c.2-.71.4-1.42.61-2.12a43.18,43.18,0,0,1,2.45-7.11c1.17-1.49,2.49,1.36,4,.27s8.68-3.94,10.42-3.83a36.55,36.55,0,0,1-5.51,3.58h-.13a7.94,7.94,0,0,1,.24,3.9c-.38,1.55-1,3-1.56,4.55-1.06,3,1.84,4.67.76,7.66,1.16,1.24,5.92,11.46,6.31,12.32S626.55,247.82,626.55,247.82Z"/></g><g id="Group_16508" data-name="Group 16508"><path id="Path_26914" data-name="Path 26914" class="cls-15" d="M611.59,211.93s-3.56,3.69-3.76,4.87c-.26,1.52,3.16,2,3.16,2a4.75,4.75,0,0,0,.72-1.88C611.77,216.06,611.59,211.93,611.59,211.93Z"/></g><g id="Group_16509" data-name="Group 16509"><path id="Path_26915" data-name="Path 26915" class="cls-15" d="M614.72,409.21l-15.64,8.66,4.46,63.33h8.91s4.5-41.75,4.85-51.2S614.72,409.21,614.72,409.21Z"/></g><g id="Group_16510" data-name="Group 16510"><path id="Path_26916" data-name="Path 26916" class="cls-15" d="M646.37,408.06s-16.47-2.16-13.9,11.79c1.82,9.92,20.34,60.78,20.34,60.78l8.64-2.14s-6.46-43.17-8.39-52.43A76,76,0,0,0,646.37,408.06Z"/></g><g id="Group_16511" data-name="Group 16511"><path id="Path_26917" data-name="Path 26917" class="cls-15" d="M665.87,218.51c-1.44,3.39-2.58,5.75-2.58,5.75l-7.21-3.46-1.65-13.23s3.51-8.67,3.51-9.45-6.15-30.88-8.27-41.28l-.58-2.84-.12-.57h0v-.05l6.34-3.07.61,1.6,1,2.73c3.95,10.48,13.75,36.85,14.63,42.74C672.3,202.21,668.57,212.16,665.87,218.51Z"/></g><g id="Group_16512" data-name="Group 16512"><path id="Path_26918" data-name="Path 26918" class="cls-15" d="M573.66,282.39l-3.35,5.47-4.72,8.35s-4.25,5.75,0,9.14c1.65,1.32,7.12-1.13,11.46-5.16,4.16-3.87,9.22-9.69,9.22-9.69Z"/></g><g id="Group_16513" data-name="Group 16513"><path id="Path_26919" data-name="Path 26919" class="cls-15" d="M564.94,304.74a62.4,62.4,0,0,1-4.91-9.15c-2.24-5.2-9.09-33.68-9.09-33.68l6.14-2s13.82,26.59,15.12,30.37-1.3,8.5-2,9.92S564.94,304.74,564.94,304.74Z"/></g><g id="Group_16514" data-name="Group 16514"><path id="Path_26920" data-name="Path 26920" class="cls-15" d="M558.65,252.07a28.08,28.08,0,0,0-.82-4.06c-.21-.79-.4-3.1-1.72-2.48-.83.38-.43,2.12-.38,2.81s.15,1.27.24,1.91c0,.34.09.68.13,1,0,.19,0,.8.12.93l-.39-.42a20.74,20.74,0,0,1-2.71-3.92l-2.69-4.67c-.46-.79-1-2.43-2-2.82a1,1,0,0,0-1.27.45v0c-.26.74.66,2,.94,2.6l2.38,5.16-2.19-3.11c-.72-1-1.41-2.08-2.22-3-.44-.51-1.24-1.54-2-1.49-1.65.08-.87,2-.39,3-1.29.56-.46,3.11-.08,4.14.71,1.9,1.41,3.81,2.12,5.71-.55-.77-1.12-1.53-1.71-2.26-.34-.42-2.37-2.45-2.84-1.27a2.68,2.68,0,0,0,.39,1.81,20.22,20.22,0,0,0,1.49,2c1.27,1.76,2.9,3.18,4.31,4.83,1,1.19,3.15,3.32,3.81,4l.21.21a31.24,31.24,0,0,1,6.24-1.1.28.28,0,0,0,.39.09.2.2,0,0,0,.09-.09l0-.06C559.83,259.08,559.07,255.26,558.65,252.07Z"/></g><g id="Group_16515" data-name="Group 16515"><path id="Path_26921" data-name="Path 26921" class="cls-15" d="M649,153.53s-3.47-5.2-2.91-6.73,1.14-4,1.83-5.55-3.81-.67-4.57-.94-3.06-1.07-.56-2.39,7.7-2.91,10.41-2,2.88,9,2.74,10.55-1,5.2-1,5.2Z"/></g><g id="Group_16516" data-name="Group 16516"><path id="Path_26922" data-name="Path 26922" class="cls-16" d="M639.19,232.61l15.24-25s7.72,6.35,10.28,9.44a29.26,29.26,0,0,1,6.86,17s-8,13.33-12.29,19.15-8.28,15-8.28,15Z"/></g><g id="Group_16517" data-name="Group 16517"><path id="Path_26923" data-name="Path 26923" class="cls-17" d="M600.5,306.1l-1.66,10.4s-5.2,9.45-5.2,29.54c0,13,5.44,71.83,5.44,71.83s52.61-1.89,53.12-3.54.67-24.81.95-33.32,2.52-34.14,1-43.36-7.67-25.51-8.15-26.81a24.39,24.39,0,0,1-.59-4.73Z"/></g><g id="Group_16518" data-name="Group 16518"><path id="Path_26924" data-name="Path 26924" class="cls-16" d="M623.26,237.34s-20.17,8-23.47,10.24-8.35,7.72-8.19,8.51,5,27.41,5.51,38.59.16,10.08,1.42,13.23,45.23,1.53,47.75-1c1.3-1.31,11.37-58,9.59-63.72S647.75,231,647,230.55,623.26,237.34,623.26,237.34Z"/></g><g id="Group_16519" data-name="Group 16519"><path id="Path_26925" data-name="Path 26925" class="cls-18" d="M647.4,228a89.11,89.11,0,0,0,1.16-13.15c-.09-5.19-1.19-10.59-4.31-14.86a16.83,16.83,0,0,0-14.38-6.81c-3,.17-8.92-.09-12.06,2.59-1.71,1.46-4,3.69-2.86,6.12a10.65,10.65,0,0,0,1.67,2.23,8.11,8.11,0,0,1,1.1,1.54,8.78,8.78,0,0,1,.45,2.28,5.4,5.4,0,0,0,2.12,2.82c1.85.67,2.46,2.82,2.47,4.7a8.63,8.63,0,0,1-.59,3.29c-.81,2-1.25,3.4-.46,5.5.61,1.62,1.49,3.1,1.29,4.89a10.66,10.66,0,0,1-1.47,4.2c-.07.13-.15.25-.23.37a26.5,26.5,0,0,0-1.2,3.92c-.57,3.12-.4,6.42-1.81,9.35s-4.39,5-5.44,8.32a48.77,48.77,0,0,0-.94,5.51,17.2,17.2,0,0,1-1.66,4.4c-.59,1.15-1.21,2.3-1.77,3.47a8.65,8.65,0,0,1,2.43.19c1.05.27,1.92.95,3,1.24a7.82,7.82,0,0,0,2.4.25,6.41,6.41,0,0,1,3.14.59,8.68,8.68,0,0,0,2.15.79,3.18,3.18,0,0,0,2-.37c1.3-.63,2.37-1,3.64,0a.24.24,0,0,0,.33-.06h0a19.41,19.41,0,0,0,2.9-7.74,30.22,30.22,0,0,0-.12,4.25c0,.9-.59,3.17.11,3.8-.23-.22,1.7-.58,1.93-.57,1.1,0,2.19.56,3.29.44,1.39-.16,2.26-1.4,3.58-1.61s2.5,1.17,3.7.43c1.47-.9,1.83-4,2.1-5.49a53.53,53.53,0,0,0,.64-5.5c0-.42.07-.85.1-1.27.16-2.1.63-4.23.85-6.34.48-4.46,0-8.94,0-13.42,0-1,0-2,.08-3C646.78,232.86,647.08,230.43,647.4,228Z"/></g><g id="Group_16520" data-name="Group 16520"><path id="Path_26926" data-name="Path 26926" class="cls-18" d="M613.34,489.94c-.71,2.21-.79,9.06-.79,9.06H611s-.23-6.46-.55-6.54-5.13,6.28-6,6.59c-.59.21-11,.11-11.54-.05s-.55-3.3,0-4.18a13.6,13.6,0,0,1,3.18-2.18c.67-.37,1.31-.77,1.94-1.2h0c.67-.63,5.55-10.24,5.55-10.24s1.7-.73,3.47-1.44a48.28,48.28,0,0,1,5.5-.53h.12s.8,2.53,1.19,4.11A14,14,0,0,1,613.34,489.94Z"/></g><g id="Group_16521" data-name="Group 16521"><path id="Path_26927" data-name="Path 26927" class="cls-15" d="M612.51,479.23c-.77.07-4.83.55-6.14,2.32-1.44,1.95-4.25,10.32-6.85,11.19a4.61,4.61,0,0,1-3.48-.11,20.14,20.14,0,0,0,1.94-1.19h0c.67-.63,5.61-10.41,5.61-10.41a13,13,0,0,1,3.33-2.15C607.51,478.64,611.73,479.27,612.51,479.23Z"/></g><g id="Group_16522" data-name="Group 16522"><path id="Path_26928" data-name="Path 26928" class="cls-18" d="M664.42,486.76c-.16,2.31,1.41,9,1.41,9l-1.53.38s-1.78-6.21-2.1-6.21-2.86,5.11-4.78,7.29c-1.06,1.2-8.08,4.68-10.06,3.93-.54-.2-1.83-2.64-1.51-3.62a13.69,13.69,0,0,1,2.57-2.89,11.52,11.52,0,0,0,1.45-2.72h0c.49-.77,2.93-11.27,2.93-11.27s1.48-1.12,3-2.23a48,48,0,0,1,5.21-1.83l.12,0s1.38,2.26,2.14,3.7A14,14,0,0,1,664.42,486.76Z"/></g><g id="Group_16523" data-name="Group 16523"><path id="Path_26929" data-name="Path 26929" class="cls-15" d="M661,476.56c-.73.26-4.56,1.7-5.4,3.73-.93,2.24-1.4,10.64-3.83,12.77-1.26,1.11-2.65,1.71-3.4,1.57a11.85,11.85,0,0,0,1.46-2.73h0c.49-.78,2.91-11.43,2.91-11.43a10.09,10.09,0,0,1,2.58-3.19C655.87,476.91,660.3,476.78,661,476.56Z"/></g><g id="Group_16524" data-name="Group 16524"><path id="Path_26930" data-name="Path 26930" class="cls-16" d="M593.64,253.19a19.31,19.31,0,0,0-5.8,6.2c-2.05,3.78-14.18,23-14.18,23l14.65,17.8,15.75-13.7Z"/></g><g id="Group_16525" data-name="Group 16525"><path id="Path_26931" data-name="Path 26931" class="cls-18" d="M660.45,134.25l-23.85,9.6-1.48,1.39a.27.27,0,0,0,0,.38.3.3,0,0,0,.21.08l2-.09L661.16,136a.94.94,0,0,0,.53-1.23h0a1,1,0,0,0-1.23-.53Z"/></g><g id="Group_16526" data-name="Group 16526"><path id="Path_26932" data-name="Path 26932" class="cls-15" d="M648,151.9s-3.64-4.62-4.11-6.2.77-7.13,1.3-7.78a1.13,1.13,0,0,1,1.59-.18,1.15,1.15,0,0,1,.34,1.3c-.34,1.77,1.7,8.21,1.7,8.21Z"/></g><g id="Group_16527" data-name="Group 16527"><path id="Path_26933" data-name="Path 26933" class="cls-19" d="M656.44,139.75a.47.47,0,0,1-.18-.91h0l4.56-1.9-.63-1.45a.46.46,0,0,1,.24-.62h0a.46.46,0,0,1,.62.24h0l1,2.33-5.44,2.27A.41.41,0,0,1,656.44,139.75Z"/></g><g id="Group_16528" data-name="Group 16528"><path id="Path_26934" data-name="Path 26934" class="cls-20" d="M549.22,252.88a.5.5,0,0,1-.4-.22l-5.08-8a.47.47,0,0,1,.15-.65h0a.47.47,0,0,1,.65.14h0l5.08,8a.47.47,0,0,1-.14.65h0A.5.5,0,0,1,549.22,252.88Z"/></g><g id="Group_16529" data-name="Group 16529"><path id="Path_26935" data-name="Path 26935" class="cls-20" d="M648.39,146.17a.48.48,0,0,1-.46-.35l-.73-2.77a.46.46,0,0,1,.34-.57h0a.46.46,0,0,1,.57.33h0l.73,2.77a.47.47,0,0,1-.34.58h-.12Z"/></g><g id="Group_16530" data-name="Group 16530"><path id="Path_26936" data-name="Path 26936" class="cls-20" d="M644.52,140.41h0a.48.48,0,0,1-.44-.51c0-.25.23-2.43,1.62-2.57a1.77,1.77,0,0,1,1.84,1.43.47.47,0,0,1-.35.57h0a.48.48,0,0,1-.57-.35h0c0-.08-.2-.78-.82-.71-.46,0-.73,1.13-.77,1.71A.48.48,0,0,1,644.52,140.41Z"/></g><g id="Group_16531" data-name="Group 16531"><path id="Path_26937" data-name="Path 26937" class="cls-20" d="M568.93,291.14a.54.54,0,0,1-.21-.05.48.48,0,0,1-.21-.63l1.38-2.8a.48.48,0,0,1,.63-.21.46.46,0,0,1,.21.63l-1.37,2.79A.49.49,0,0,1,568.93,291.14Z"/></g><g id="Group_16532" data-name="Group 16532"><path id="Path_26938" data-name="Path 26938" class="cls-21" d="M552.09,269.12H552a.48.48,0,0,1-.4-.54.49.49,0,0,1,.5-.4A8,8,0,0,0,554.6,267a7.49,7.49,0,0,0,3.63-4.9.48.48,0,0,1,.53-.41.49.49,0,0,1,.41.53,8.24,8.24,0,0,1-4.1,5.59C553.17,269,552.39,269.12,552.09,269.12Z"/></g><g id="Group_16533" data-name="Group 16533"><path id="Path_26939" data-name="Path 26939" class="cls-21" d="M551.68,267.19a.47.47,0,0,1,0-.94h0a12.39,12.39,0,0,0,4.79-1.7,14.19,14.19,0,0,0,2.39-1.74.45.45,0,0,1,.64-.12h0a.49.49,0,0,1,.11.67,11.48,11.48,0,0,1-2.63,2,13.08,13.08,0,0,1-5.21,1.85Z"/></g><g id="Group_16534" data-name="Group 16534"><path id="Path_26940" data-name="Path 26940" class="cls-21" d="M553.06,272.23a.48.48,0,0,1-.33-.81h0l6.93-6.85a.48.48,0,0,1,.67,0h0a.47.47,0,0,1,0,.67h0l-6.93,6.85A.48.48,0,0,1,553.06,272.23Z"/></g><g id="Group_16535" data-name="Group 16535"><path id="Path_26941" data-name="Path 26941" class="cls-22" d="M597.72,291.14h-.08a.47.47,0,0,1-.38-.55h0c0-.1,1.75-9.75.82-17.15s-3.39-18.51-3.42-18.62a.49.49,0,0,1,.36-.57h0a.47.47,0,0,1,.56.36h0c0,.11,2.5,11.22,3.44,18.71s-.81,17.34-.83,17.44A.48.48,0,0,1,597.72,291.14Z"/></g><g id="Group_16536" data-name="Group 16536"><path id="Path_26942" data-name="Path 26942" class="cls-22" d="M654.67,259.55h-.06a.46.46,0,0,1-.41-.52h0a35.32,35.32,0,0,0-1.4-12.8.48.48,0,0,1,.32-.59h0a.48.48,0,0,1,.59.32h0a35.66,35.66,0,0,1,1.43,13.19A.47.47,0,0,1,654.67,259.55Z"/></g><g id="Group_16537" data-name="Group 16537"><path id="Path_26943" data-name="Path 26943" class="cls-22" d="M655.38,248.89a.48.48,0,0,1-.47-.4,91.55,91.55,0,0,0-3.4-13.35.48.48,0,0,1,.27-.61h0a.46.46,0,0,1,.6.28h0a93.14,93.14,0,0,1,3.46,13.52.48.48,0,0,1-.38.55h-.09Z"/></g><g id="Group_16538" data-name="Group 16538"><path id="Path_26944" data-name="Path 26944" class="cls-22" d="M599.26,280.94h-.07a.47.47,0,0,1-.4-.53h0a102.35,102.35,0,0,0,1.06-13.66c-.12-5.6-2.09-14.13-2.11-14.22a.47.47,0,0,1,.35-.57h0a.48.48,0,0,1,.57.36h0c0,.08,2,8.71,2.14,14.41a104.76,104.76,0,0,1-1.07,13.82A.49.49,0,0,1,599.26,280.94Z"/></g><g id="Group_16539" data-name="Group 16539"><path id="Path_26945" data-name="Path 26945" class="cls-22" d="M635.18,308.7a.47.47,0,0,1-.37-.18.46.46,0,0,1,.07-.66h0a28.69,28.69,0,0,0,7.18-9.52c2.78-6,5.61-19.77,5.64-19.91a.48.48,0,0,1,.56-.37h0a.49.49,0,0,1,.37.56h0c-.12.57-2.88,14-5.71,20.12a28.9,28.9,0,0,1-7.46,9.86A.45.45,0,0,1,635.18,308.7Z"/></g><g id="Group_16540" data-name="Group 16540"><path id="Path_26946" data-name="Path 26946" class="cls-22" d="M630.33,307.87a.46.46,0,0,1-.3-.11.47.47,0,0,1-.06-.66h0l6.15-7.21a.47.47,0,0,1,.66-.06h0a.48.48,0,0,1,.06.67h0l-6.15,7.21A.48.48,0,0,1,630.33,307.87Z"/></g><g id="Group_16541" data-name="Group 16541"><path id="Path_26947" data-name="Path 26947" class="cls-18" d="M657.17,155.72c-1,.35-2,.67-3,1-1.42.43-2.91.73-4.31,1.24l-.58-2.84c2.19-.84,4.54-1.42,6.82-2.1C656.4,153.7,656.75,154.63,657.17,155.72Z"/></g><g id="Group_16542" data-name="Group 16542"><path id="Path_26948" data-name="Path 26948" class="cls-5" d="M657.19,154.47a2.17,2.17,0,1,1-2.66-1.92A2.33,2.33,0,0,1,657.19,154.47Z"/></g><g id="Group_16543" data-name="Group 16543"><path id="Path_26949" data-name="Path 26949" class="cls-18" d="M616.82,208.93l0,0a7.64,7.64,0,0,0-3.8-3l-.12-.05c-.21.71-.41,1.41-.61,2.12a9.17,9.17,0,0,1,1.27.24,13.19,13.19,0,0,1,1.63.59c.37.16,1.06.67,1.46.62a.3.3,0,0,0,.25-.23A.43.43,0,0,0,616.82,208.93Z"/></g><g id="Group_16544" data-name="Group 16544"><path id="Path_26950" data-name="Path 26950" class="cls-18" d="M613.83,210.77c.06-.31.07-.78-.16-1-1.36-1.11-2.47,3.33-.88,2.66A2.38,2.38,0,0,0,613.83,210.77Z"/></g><g id="Group_16545" data-name="Group 16545"><path id="Path_26951" data-name="Path 26951" class="cls-5" d="M613.24,221.82A7.29,7.29,0,0,1,611,223a7,7,0,0,1-1.43.23c.06-.69.12-1.4.2-2.1a10.17,10.17,0,0,0,2.39.5C613.44,221.65,613.24,221.82,613.24,221.82Z"/></g><g id="Group_16546" data-name="Group 16546"><path id="Path_26952" data-name="Path 26952" class="cls-23" d="M613.87,263.57h-.09a.47.47,0,0,1-.37-.56h0c0-.23,1.12-5.65,2.2-7.8a14.69,14.69,0,0,1,2.12-2.84,17,17,0,0,0,3.53-5.38,16,16,0,0,0,.68-3.82,21,21,0,0,1,1.78-7.32c2.24-5.23.61-12.47.6-12.54a.47.47,0,0,1,.35-.57h0a.48.48,0,0,1,.57.35h0c.07.31,1.71,7.62-.65,13.13a20.09,20.09,0,0,0-1.71,7,16.34,16.34,0,0,1-.73,4,17.68,17.68,0,0,1-3.71,5.7,14.5,14.5,0,0,0-2,2.63c-1,2.05-2.12,7.52-2.13,7.57A.46.46,0,0,1,613.87,263.57Z"/></g><g id="Group_16547" data-name="Group 16547"><path id="Path_26953" data-name="Path 26953" class="cls-23" d="M617.9,266.91a.48.48,0,0,1-.47-.43c0-.27-.59-6.63,1.83-9.48a24.15,24.15,0,0,0,4.44-7.77,56.15,56.15,0,0,0,1.21-6.15.47.47,0,0,1,.54-.4h0a.46.46,0,0,1,.4.53h0a56.11,56.11,0,0,1-1.24,6.3,25.48,25.48,0,0,1-4.62,8.1c-2.17,2.55-1.62,8.72-1.61,8.78a.47.47,0,0,1-.43.51h-.05Z"/></g><g id="Group_16548" data-name="Group 16548"><path id="Path_26954" data-name="Path 26954" class="cls-23" d="M644.94,241.27a.48.48,0,0,1-.47-.43,79,79,0,0,1-.39-8.42,111.79,111.79,0,0,1,1.5-11.15,49.78,49.78,0,0,0,0-11.83.48.48,0,0,1,.41-.53h0a.48.48,0,0,1,.53.41h0a50.21,50.21,0,0,1,0,12.11c-.88,5.17-1.34,8.57-1.5,11a78.81,78.81,0,0,0,.4,8.27.49.49,0,0,1-.43.52h0Z"/></g><g id="Group_16549" data-name="Group 16549"><path id="Path_26955" data-name="Path 26955" class="cls-21" d="M622.28,219.55c-.17-.62-.38-1.22-.59-1.79a.18.18,0,0,0-.06-.09.23.23,0,0,0-.3-.15.26.26,0,0,0-.14.11c-.92,1.89-2.29,4.24-1.14,6.35.71,1.29,2,.62,2.39-.52A6.77,6.77,0,0,0,622.28,219.55Zm-.49,3.31a.73.73,0,0,1-.93.47.72.72,0,0,1-.37-.27,1.66,1.66,0,0,1-.25-.87,4.05,4.05,0,0,1,.11-1.25,1.53,1.53,0,0,1,.26-.6c.43-.54,1-.22,1.16.33a1.87,1.87,0,0,1,.07.22A2.84,2.84,0,0,1,621.79,222.86Z"/></g></g><g id="Group_5166" data-name="Group 5166"><path id="Path_15745" data-name="Path 15745" class="cls-24" d="M322.12,489.1l6.12,7.78,4-5.77-1.93-3.65-.45-17.62-8,.12Z"/><path id="Path_15746" data-name="Path 15746" class="cls-25" d="M322.62,496.52a14.39,14.39,0,0,0,5.47,1.31c1.57.08.51-1.12,2.08-.85s6.34,2.74,7.87,3c3.1.58,7.95,1.34,8,1.35,1.44.31,2-.35,2.1-.57.48-1.46,1-2.46-.33-3.63s-12.48-6.69-16.17-9.26a.31.31,0,0,0-.32,0,.36.36,0,0,0-.2.06c-1.26.88-1.92.62-2.5,2-.48,1.19-7.07-1.5-7.07-1.5a.38.38,0,0,0-.44.29v.08C321,490.68,320.73,495.71,322.62,496.52Z"/><path id="Path_15747" data-name="Path 15747" class="cls-26" d="M321.15,493.12c3.8,1.3,7.83,1.18,11.51,2.62a73.78,73.78,0,0,0,15.51,4.11,1,1,0,0,1,.3.1c-.08.27-.19.57-.29.88s-.66.88-2.1.57c-.06,0-4.92-.78-8-1.36-1.53-.28-6.33-2.75-7.86-3s-.51.93-2.09.85a14.39,14.39,0,0,1-5.47-1.31C321.7,496.15,321.3,494.7,321.15,493.12Z"/><path id="Path_15748" data-name="Path 15748" class="cls-24" d="M253.76,486.72l2.12,9.67,6.11-3.45-.15-4.12,7.28-16.05-7.26-3.39Z"/><path id="Path_15749" data-name="Path 15749" class="cls-25" d="M251,493.62a14.58,14.58,0,0,0,4.35,3.57c1.39.75,1-.79,2.25.14s4.51,5.23,5.76,6.15c2.53,1.87,6.57,4.68,6.62,4.72,1.17.91,2,.57,2.14.4,1.07-1.1,2-1.78,1.29-3.4s-8.31-11.47-10.51-15.39a.28.28,0,0,0-.29-.12.32.32,0,0,0-.21,0c-1.52.24-2-.28-3.14.75-1,.86-5.72-4.43-5.72-4.43a.37.37,0,0,0-.51.07.25.25,0,0,0,0,.07C252.09,487.68,249.63,492.06,251,493.62Z"/><path id="Path_15750" data-name="Path 15750" class="cls-26" d="M251.14,489.93c2.85,2.81,6.52,4.47,9.21,7.37a73.69,73.69,0,0,0,12.17,10.47,1.1,1.1,0,0,1,.22.21c-.2.22-.42.43-.65.67s-1,.5-2.13-.4c-.06,0-4.1-2.85-6.63-4.72-1.25-.93-4.5-5.25-5.76-6.15s-.86.61-2.25-.15a14.12,14.12,0,0,1-4.34-3.57C250.3,492.89,250.58,491.41,251.14,489.93Z"/><path id="Path_15751" data-name="Path 15751" class="cls-27" d="M333.47,481c-.85-3.56-.38-7.35-.31-11,.07-4.13.09-8.26.09-12.39,0-7.34-.06-14.68-.1-22-.07-15,.78-19.27.34-34.31s-1-30.14-2.38-45.14c-.67-7.36-1.56-14.71-2.82-22-.82-4.75-.87-12.5-6-14.75s-13.44-1.29-18.16,1.73a15.41,15.41,0,0,0-1.47,1.08c0-.41,0-.82,0-1.23,0-1.7-2.64-1.78-2.64-.07,0,.88,0,1.77,0,2.66a71.87,71.87,0,0,0-24.84,7.14c-2.15,1.06-4.93,2.16-6.64,3.89s-1.39,3.75-1.23,5.84c.25,3.38.63,6.75,1,10.12.72,7-1.8,68.52-4.18,74.89-1,2.66-2.46,5.19-3.22,7.93-.84,3-.51,6-.26,9.07a23.43,23.43,0,0,1-1.64,10.67,30,30,0,0,0-1.9,8.35c-.46,6.26.86,13.22-3.36,18.47a1.34,1.34,0,0,0,.43,1.83,61.66,61.66,0,0,0,11.06,5.8,1.35,1.35,0,0,0,1.72-1.24c.56-4.8,4.21-8.28,7-11.94a20.51,20.51,0,0,0,4.43-11.76c.44-6.05,2.51-11.4,4.69-17a61.45,61.45,0,0,0,3.86-15.57c.77-6.43,4.39-11.48,6.57-17.42a85.33,85.33,0,0,0,3.86-16.3c1.59-10,1.4-15.88,2.36-26,.29,1.33,1,5.56,1.32,6.87,1.7,6.88,3.53,13.68,4.06,20.77.49,6.47-.59,2.19.42,8.62s3.07,12.51,4.08,18.87a80.29,80.29,0,0,1,1,11.16c.06,3.33-.28,6.7.22,10,.42,2.76,1.65,5.11,2.64,7.68a33.43,33.43,0,0,1,1.85,10,89.57,89.57,0,0,0,2.91,19.05,1.67,1.67,0,0,0,1.6,1.22l12.14-1.54a1.7,1.7,0,0,0,1.66-1.73A2.2,2.2,0,0,0,333.47,481Z"/><path id="Path_15752" data-name="Path 15752" class="cls-28" d="M306,241.36a10.81,10.81,0,0,0-1.87-5.82c-1.34-1.9-3.31-3.23-4.64-5.15a10.29,10.29,0,0,1-1.72-8.43c.3-1.24-1.6-1.77-1.91-.53a12.14,12.14,0,0,0-.34,2.16q-6.19-1-12.33-2.33c0-.1.09-.21.13-.32.46-1.19-1.45-1.69-1.91-.52a15.45,15.45,0,0,1-5.16,6.81c-.89.67-2.35,1.22-2.95,2.19-1.29,2.1,1.69,4.69,2.91,6.24,5.72,7.25,9.83,15.56,15.29,23,1.43,1.94,3.16,4.79,5.89,4.88,3.06.1,4.3-3.33,5.29-5.64C303.46,256.14,308.72,243.1,306,241.36Z"/><path id="Path_15753" data-name="Path 15753" class="cls-28" d="M297.76,222c.6-3.41,1.16-6.82,1.69-10.25.37-2.46,1.6-6,1-8.44a1.09,1.09,0,0,0-1.16-.89,40,40,0,0,0-4,.52c-1.84.14-3.68.1-5.51.26-2,.18-3.79.41-5.19,1.87a.8.8,0,0,0-.23.82h0q-1.14,4.88-2,9.82c-.44,2.6-1.7,6.32-1.26,8.94.25,1.45,1.05,1.6,2.48,2.12a91.48,91.48,0,0,0,9.27,2.8c1.34.34,2.34.77,3.33-.25C297.58,227.83,297.42,223.87,297.76,222Z"/><path id="Path_15754" data-name="Path 15754" class="cls-29" d="M300.07,228.29a1,1,0,0,0-1.25-.69.85.85,0,0,0-.22.09c-3.61,1.84-7.14,2.83-11.17,1.79a32.41,32.41,0,0,1-8.57-4.07,1,1,0,0,0-1,1.72l.38.23a1,1,0,0,0-.48,1c1.93,13.09,10.85,23.2,16.16,34.91a1,1,0,0,0,1.37.35.75.75,0,0,0,.2-.15c3.38-4.35,3.93-11.16,4.66-16.45A61,61,0,0,0,300.07,228.29Z"/><path id="Path_15755" data-name="Path 15755" class="cls-29" d="M331.07,340.42c-.48-2.65-1.12-5.29-1.68-7.93-.71-3.32-.94-8.38-4.58-10-1.83-.81-4.16-.68-6.11-.77q-4-.19-8.05,0a101.81,101.81,0,0,0-45.84,12.79,1.64,1.64,0,0,0,.21,2.93q-.13,7.29.13,14.58a1.69,1.69,0,0,0,1.73,1.64,1.57,1.57,0,0,0,.37,0q17.58-2.53,35.25-4.44,8.44-.92,16.92-1.66c3.19-.29,8.76.3,11-2.58C331.49,343.6,331.36,342,331.07,340.42Z"/><path id="Path_15756" data-name="Path 15756" class="cls-30" d="M337.58,270.36a1.18,1.18,0,0,0,.12-.64,21.43,21.43,0,0,0-5.15-12.94c-1.83-2.12-4.12-3.89-5.67-6.25-1.41-2.14-1.79-4.67-2.75-7-4.05-9.76-14.92-14.63-24.6-17.05a1.35,1.35,0,0,0-1.65,1,1.86,1.86,0,0,0,0,.33c.38,9.36.77,18.72-.59,28-2.69-5.48-15.44-27.77-18-29.57h0a1.19,1.19,0,0,0-1.39-.53c-8.55,2.3-17,5.23-23.24,12.05S246.1,260.88,244,266c-1.91,4.66-3.7,9.4-3.74,14.5,0,3.1.42,6.11,0,9.21s-1.38,6.06-1.79,9.14c-.48,3.54-.35,7.93,2.05,10.83,3.15,3.81,6.24-.82,9.19-2.3,3.93-2,7.76-1.11,8.73-6,.07-.39-.16-.91,0-1.27.44-1.26,1.69-1.6,2.66-2.2s-.8,20.12,2.64,25.9c3.06,5.15,18.39,4.5,21.6,9.48a1.13,1.13,0,0,0,.29,1.57.82.82,0,0,0,.2.12c6.17,2.91,11.87,0,17.73-2.21a47.47,47.47,0,0,1,23.34-2.64,1.36,1.36,0,0,0,1.69-1.28c-.72-12-2.53-29.57-3.26-41.53a16.82,16.82,0,0,0,10.9-5.8C338.74,278.29,338.19,274.22,337.58,270.36Z"/><path id="Path_15757" data-name="Path 15757" class="cls-31" d="M293.87,324.35q-1.72-5.73-3.44-11.47c-1.16-3.86-2.28-7.73-3.48-11.57-.44-1.42-.63-2.94-2.13-3.42-1.69-.54-4.31.95-5.82,1.45-3.38,1.11-26.09,9.08-29.46,10.23-1.5.51-4.47.89-5.53,2.35-.94,1.3-.22,2.63.24,4.05,1.24,3.83,2.55,7.64,3.83,11.46l3.79,11.34c.6,1.79,1,5,2.48,6.24s3.31.45,4.83,0c3.54-1,29-9.85,32.37-11.2,1.47-.59,3.46-1.06,3.89-2.95S294.41,326.15,293.87,324.35Z"/><path id="Path_15758" data-name="Path 15758" class="cls-28" d="M279.2,335.26c-.6-1.94-.49-3.25-1.44-5,1.11.29,1.07.5,1.74,1.52.29.43.33.59.83.73a.36.36,0,0,0,.37-.17c.81-1.19-.93-4.18-1.75-5.14-1.26-1.48-3.26-1.89-5-2.61-.71-1-1.56-2-2.07-2.71-3.27-4.62-6.84-9-10.21-13.54-1.22-1.65-2.37-3.69-3.66-5.62a9.84,9.84,0,0,1-2.38,2.22c-1.89,1.3-4.13,1.73-6.11,2.82a31,31,0,0,0-3.14,2.2c2.15,2.14,4.42,4.14,6.38,6,5.35,5.19,10.63,8.57,16.44,13.22.59,2.1.74,5.95,1.36,8.08a28.12,28.12,0,0,0,1.42,4.76c.13.22,2,2.54,3.28,2a1.12,1.12,0,0,0,.73-.89,1.08,1.08,0,0,0,1.17-.05,1.12,1.12,0,0,0,.52-.78,1.23,1.23,0,0,0,1.72,0,1.33,1.33,0,0,0,.49-1.18c.75.42,1.56.49,2.07-.44C282.8,339.1,279.31,335.6,279.2,335.26Z"/><path id="Path_15759" data-name="Path 15759" class="cls-32" d="M307.12,355a68,68,0,0,1-3.47,12.76c-.15.39.49.56.64.17a67.06,67.06,0,0,0,3.46-12.76C307.82,354.74,307.19,354.56,307.12,355Z"/><path id="Path_15760" data-name="Path 15760" class="cls-32" d="M290.56,379.9c-.73,7.17-1.38,14.36-2.22,21.52s-3.2,13.54-5.75,20.2a70,70,0,0,0-3,9.47c-.76,3.39-1.17,6.85-1.82,10.27-1.3,6.91-3.74,13.62-5.81,20.32-2.27,7.36-4.19,15.07-8.51,21.55-.23.35.34.68.57.33,3.64-5.47,5.52-11.78,7.43-18,2.14-6.94,4.59-13.86,6.29-20.93.85-3.49,1.29-7.05,1.93-10.58a60.91,60.91,0,0,1,2.74-10c2.39-6.62,5.23-13,6.26-20,1.18-8,1.74-16.12,2.56-24.17C291.26,379.48,290.6,379.48,290.56,379.9Z"/><path id="Path_15761" data-name="Path 15761" class="cls-32" d="M329,437a148.75,148.75,0,0,1-.51-19.35c.12-6.13,0-12.29-1.91-18.18-.12-.4-.76-.23-.63.18,2,6.23,2,12.75,1.85,19.23a143.48,143.48,0,0,0,.61,18.77c.68,6.42.35,12.88.25,19.33q-.18,10.2-.34,20.42a.33.33,0,0,0,.66,0q.17-10.22.34-20.42C329.46,450.3,329.75,443.64,329,437Z"/><path id="Path_15762" data-name="Path 15762" class="cls-28" d="M332.21,261.55q-7-10-14.07-19.94c-2.18-3.1-4.48-6.14-6.55-9.32-1.56-2.4-2-5-2.59-7.71a4.23,4.23,0,0,0-.46-1.94,2.53,2.53,0,0,0-.12-.23,1.27,1.27,0,0,0-.06-.18.9.9,0,0,0-.29-.45,30.45,30.45,0,0,0-4.74-5.58,5.53,5.53,0,0,0-4.89-1.69,5.24,5.24,0,0,0-3.93,7.25.63.63,0,0,0,0,.9c2.07,2.24,2.39,5.08,4.14,7.38.49.64,3.56,2.07,4.23,2.29,4.44,8.83,12.75,34.89,15.91,36.4,1.46.7,2.91.16,4.27-.47,2.81-1.3,5.49-2.94,8.22-4.41a8.7,8.7,0,0,0,.94-2.3Z"/><path id="Path_15763" data-name="Path 15763" class="cls-28" d="M310,196.16a13.25,13.25,0,0,0-4.07-9.46c-2.74-2.88-14.09-4.12-20.87-.7-2,1-3.48,4.49-3.42,6.33.16,5.25,0,7.43.94,12.6.77,4.46,3.17,7.29,6.37,10.84s9,5.13,12.44,3.62c2.94-1.29,4.37-4.06,5.65-6.31C309.93,207.93,310.16,200,310,196.16Z"/><path id="Path_15764" data-name="Path 15764" class="cls-31" d="M295.93,200.26c-.06.79-.49,1.4-1,1.37s-.83-.7-.78-1.49.49-1.41,1-1.37S296,199.47,295.93,200.26Z"/><path id="Path_15765" data-name="Path 15765" class="cls-31" d="M307.75,200.59c-.06.79-.49,1.4-1,1.37s-.83-.7-.78-1.49.49-1.41,1-1.37S307.8,199.8,307.75,200.59Z"/><path id="Path_15766" data-name="Path 15766" class="cls-33" d="M304.49,212c0-.18-.12-.29-.4-.3-2.63-.07-4.62-.18-7.62-.14-.31,0-.44.25-.3.43,1.71,2.17,6.18,1.92,8.16.26A.42.42,0,0,0,304.49,212Z"/><path id="Path_15767" data-name="Path 15767" class="cls-33" d="M303.21,207.22c.46-1.83-.52-4-1-5.72-.1-.41-.75-.31-.65.11.28,1.13.67,2.25.88,3.41a5,5,0,0,1,.15,1.73c-.3,1.55-1.33,1.42-2.35,1.61a.34.34,0,0,0-.28.39.33.33,0,0,0,.38.27h0C301.65,208.78,302.85,208.69,303.21,207.22Z"/><path id="Path_15768" data-name="Path 15768" class="cls-31" d="M298.35,196.4c.08-.5-.51-.79-.74-.87a8.21,8.21,0,0,0-4.44-.45c-.49.11-2.18.6-1.59,1.41.22.31,1,.28,1.34.32,1.09.13,2.19.21,3.29.28C297,197.14,298.15,197.56,298.35,196.4Z"/><path id="Path_15769" data-name="Path 15769" class="cls-31" d="M305.47,197.64c1,0,2.09-.07,3.13-.16.29,0,1.06,0,1.28-.27.58-.76-1-1.28-1.47-1.4a8.06,8.06,0,0,0-4.87.53c-.16.06-.17.22-.17.35C303.42,197.83,304.73,197.66,305.47,197.64Z"/><path id="Path_15770" data-name="Path 15770" class="cls-31" d="M314.18,188.78c-.32-.53-1.1-1.19-1.34-1.72-.39-.91,0-1.86-.18-2.79-.37-2.59-2.87-4-5.16-4.58a16.78,16.78,0,0,1-2.44-.51c-.76-.33-.89-1.16-1.31-1.82A6,6,0,0,0,301,175.1a7.4,7.4,0,0,0-5-.14,12.42,12.42,0,0,0-2.08.92,5.71,5.71,0,0,1-3.34.36c-2.35-.13-3.78,1.51-4.68,3.45a5.25,5.25,0,0,1-3,.11,2.94,2.94,0,0,0-1.58.16,4,4,0,0,0-2.08,2.71c-.18.72-.12,1.46-.27,2.19a16.14,16.14,0,0,1-1.44,3,6.77,6.77,0,0,0-.58,4c.16.79.72,1.46.87,2.23.18.94-.46,1.85-.63,2.75a6.68,6.68,0,0,0,.93,4.27c.46.86,1.05,1.64,1.53,2.48a8.66,8.66,0,0,1,.88,3.08,7.16,7.16,0,0,0,2.4,3.61.34.34,0,0,0,.48,0,.36.36,0,0,0,.09-.22c.25-2.09.47-4.63,2.07-6.16.95-.91,2.22-1.46,3-2.54s.78-2.6.69-4a3.82,3.82,0,0,1,.69-3.07,6.69,6.69,0,0,1,2.43-1.21,5.45,5.45,0,0,0,2.71-4,2.9,2.9,0,0,0,.51,0c.92-.12,1.21-.62,2.18,0,.61.36,1.08,1,1.68,1.42a6.81,6.81,0,0,0,3.78,1.18,15.58,15.58,0,0,1,2.71-.16c1.67.4,2,1.65,2.64,3,.72,1.59,2.55,3.49,4.38,2.12.84-.63.54-1.21.74-2.08.27-1.19,1.63-1,1.67-2.38A6.69,6.69,0,0,0,314.18,188.78Z"/><path id="Path_15771" data-name="Path 15771" class="cls-28" d="M287.61,201.67c-1.4-1.29-3.21-1.64-4.36.17-1.06,1.66-.63,4,.19,5.78a2.83,2.83,0,0,0,1.54,1.52l0,0a.91.91,0,0,0,1.26-.21,1,1,0,0,0,.16-.41,2.15,2.15,0,0,0,.19-.37,7,7,0,0,0-.31-5.17l.23.18C287.43,204,288.49,202.49,287.61,201.67Z"/><path id="Path_15772" data-name="Path 15772" class="cls-33" d="M285.74,203.45a3.29,3.29,0,0,0,.07,4.09c.28.32.81-.07.53-.39a2.65,2.65,0,0,1-.09-3.29C286.49,203.51,286,203.1,285.74,203.45Z"/><path id="Path_15773" data-name="Path 15773" class="cls-30" d="M340,267.63c-1.72-3.13-3-5.22-3.44-8.93-.44-3.93-1-8.46-5.16-10.13-2.5-1-4.84-.59-7.12-2.26-1-.73-1.89-1.52-3.19-.94-1.68.76-2.67,3.84-3.91,5.13a16.34,16.34,0,0,1-7.61,4.39,1,1,0,0,0,.52,1.91c.31-.08.61-.18.91-.27-1.54,4.82.7,10.66,2.32,15.17s3.52,10.05,8,12.46c3.65,2,6.56,6.33,13.51,2.45,5.63-3.15,6-12.56,6.26-14.26A7.13,7.13,0,0,0,340,267.63Z"/><path id="Path_15774" data-name="Path 15774" class="cls-26" d="M305.79,187.71a6.65,6.65,0,0,0-2.4-1.29c-1.14-.31-2.36.07-3.46-.25s-1.73-1.76-2.65-2.42a5.33,5.33,0,0,0-2.52-.9c-.42,0-.42.6,0,.66a5,5,0,0,1,3.4,2.13,3.59,3.59,0,0,0,1.15,1,4.41,4.41,0,0,0,2,.23,6.17,6.17,0,0,1,4.05,1.3C305.66,188.44,306.13,188,305.79,187.71Z"/><path id="Path_15775" data-name="Path 15775" class="cls-26" d="M309.1,186.33c-.42,0-.42.62,0,.66.75.07,1.41.89,1.77,1.48a4.67,4.67,0,0,1,.61,1.77c.06.42.69.24.64-.17C311.91,188.56,310.8,186.48,309.1,186.33Z"/><path id="Path_15776" data-name="Path 15776" class="cls-26" d="M310.1,191.21c-.23-.36-.8,0-.57.33a2.73,2.73,0,0,1,.4,1.87c0,.36.6.45.65.08A3.27,3.27,0,0,0,310.1,191.21Z"/><path id="Path_15777" data-name="Path 15777" class="cls-26" d="M280.53,188.4c-1.13,1.28-1.77,3.09-.67,4.6.24.34.82,0,.57-.33-.91-1.28-.38-2.73.57-3.81C281.28,188.55,280.81,188.08,280.53,188.4Z"/><path id="Path_15778" data-name="Path 15778" class="cls-26" d="M282.83,194.29a4.08,4.08,0,0,1-.14-3.23c.14-.4-.5-.57-.64-.17a4.77,4.77,0,0,0,.21,3.74C282.44,195,283,194.67,282.83,194.29Z"/><path id="Path_15779" data-name="Path 15779" class="cls-26" d="M305.84,181.38a5.07,5.07,0,0,0-1.92-1.28c-.73-.27-2.86-.13-2.94-1,0-.42-.69-.42-.66,0a1.46,1.46,0,0,0,1.32,1.34c.6.12,1.21.07,1.82.25a4.41,4.41,0,0,1,1.92,1.2C305.67,182.14,306.14,181.68,305.84,181.38Z"/><path id="Path_15780" data-name="Path 15780" class="cls-34" d="M320.69,282.42c-3.61-3.88-9-9.29-8-15.11.38-2.22,2.38-4,2.22-6.38-.14-2-1.73-3.57-3.12-4.87-.31-.28-.78.18-.46.47a9.28,9.28,0,0,1,2.73,3.52c.56,1.73-.36,3.1-1.11,4.56a8.7,8.7,0,0,0-.89,5.69c.85,4.87,4.94,9.1,8.19,12.58C320.51,283.19,321,282.73,320.69,282.42Z"/><path id="Path_15781" data-name="Path 15781" class="cls-34" d="M269.64,243.55c0-.42-.69-.42-.66,0a35.52,35.52,0,0,1-.14,8.56,17.77,17.77,0,0,1-2.64,6.24,17.89,17.89,0,0,0,1-7.74c-.58-4.53-4.51-6.58-6.42-10.39-.19-.37-.76,0-.57.33a20.21,20.21,0,0,0,3.4,4.41,10.36,10.36,0,0,1,3,6.72c.19,4.84-2.39,9.15-3.28,13.79-.84,4.35.66,8.6.21,12.93-.48,4.69-4.64,6.91-6.61,10.83-.19.37.38.71.57.33,1.93-3.84,5.94-6,6.63-10.52.75-4.9-1.12-9.66.1-14.58.35-1.39.82-2.78,1.28-4.16a.31.31,0,0,0,.26-.14,21,21,0,0,0,3.66-7.88A35.42,35.42,0,0,0,269.64,243.55Z"/><path id="Path_15782" data-name="Path 15782" class="cls-33" d="M303.75,217.43c-3.8,2.15-8.58,2.37-11.75-1-.29-.32-.75.15-.46.46a8.61,8.61,0,0,0,6.14,2.79c-.63,2.09-1.21,4.18-1.74,6.29a.33.33,0,0,0,.64.18c.54-2.12,1.12-4.22,1.74-6.32a.61.61,0,0,0,0-.14,12.29,12.29,0,0,0,5.75-1.67.34.34,0,0,0,.1-.46A.33.33,0,0,0,303.75,217.43Z"/></g></g></g></svg>